<svg id="Layer_1" data-name="Layer 1" xmlns="http://www.w3.org/2000/svg" viewBox="0 0 1359.29 2073.73"><defs><style>.cls-1,.cls-9{fill:#ed1751;}.cls-1,.cls-2{opacity:0.75;}.cls-2,.cls-3,.cls-4,.cls-5,.cls-6{fill:#e71856;}.cls-3{opacity:0.46;}.cls-5{opacity:0.13;}.cls-6{opacity:0.07;}.cls-7{fill:#e41a50;opacity:0.25;}.cls-8{fill:#ee2324;opacity:0.08;}.cls-10,.cls-9{stroke:#231f20;}.cls-10,.cls-11,.cls-9{stroke-miterlimit:10;stroke-width:0.25px;}.cls-10,.cls-11{fill:none;}.cls-11{stroke:#ed1c24;}</style></defs><title>punane1</title><circle class="cls-1" cx="721.51" cy="1055.97" r="46.34"/><circle class="cls-1" cx="807.89" cy="1223.44" r="19.35"/><circle class="cls-2" cx="717.26" cy="1370.9" r="66.07"/><circle class="cls-3" cx="322.4" cy="1242.79" r="66.07"/><circle class="cls-2" cx="403.19" cy="1172.69" r="66.07"/><circle class="cls-2" cx="101.73" cy="1779.78" r="66.07"/><circle class="cls-4" cx="272.85" cy="1365.35" r="16.52"/><circle class="cls-5" cx="194.3" cy="420.96" r="192.94"/><circle class="cls-6" cx="668.11" cy="561.55" r="235.4"/><circle class="cls-7" cx="337.13" cy="977.41" r="235.4"/><circle class="cls-6" cx="827.24" cy="1541.68" r="532.05"/><circle class="cls-1" cx="1087.18" cy="956.77" r="20.63"/><circle class="cls-8" cx="996.54" cy="251" r="251"/><circle class="cls-1" cx="45.2" cy="1154.7" r="31.02"/><circle class="cls-1" cx="46.66" cy="1141.67" r="31.02"/><line class="cls-9" x1="542.49" y1="958.97" x2="914.95" y2="1412.47"/><path class="cls-10" d="M57.64,757c0,313.6,173.69,567.37,388.34,567.37" transform="translate(-57.51 173.68)"/><path class="cls-11" d="M1165.33,1065.07c0,443.71-215.66,802.75-482.17,802.75" transform="translate(-57.51 173.68)"/><path class="cls-11" d="M1214.85-45.73C1214.85,398,999.19,757,732.68,757" transform="translate(-57.51 173.68)"/></svg>